<?xml version="1.0" encoding="UTF-8" standalone="no"?><svg xmlns="http://www.w3.org/2000/svg" xmlns:xlink="http://www.w3.org/1999/xlink" contentScriptType="application/ecmascript" contentStyleType="text/css" height="177px" preserveAspectRatio="none" style="width:566px;height:177px;" version="1.1" viewBox="0 0 566 177" width="566px" zoomAndPan="magnify"><defs><filter height="300%" id="f1s0d3ee1u0uek" width="300%" x="-1" y="-1"><feGaussianBlur result="blurOut" stdDeviation="2.0"/><feColorMatrix in="blurOut" result="blurOut2" type="matrix" values="0 0 0 0 0 0 0 0 0 0 0 0 0 0 0 0 0 0 .4 0"/><feOffset dx="4.0" dy="4.0" in="blurOut2" result="blurOut3"/><feBlend in="SourceGraphic" in2="blurOut3" mode="normal"/></filter></defs><g><!--MD5=[b2f23c4a06b9bc4c947f037f864aea3c]
class Class01--><rect fill="#FEFECE" filter="url(#f1s0d3ee1u0uek)" height="48" id="Class01" style="stroke: #A80036; stroke-width: 1.5;" width="81" x="7" y="7"/><ellipse cx="22" cy="23" fill="#ADD1B2" rx="11" ry="11" style="stroke: #A80036; stroke-width: 1.0;"/><path d="M24.9688,28.6406 Q24.3906,28.9375 23.75,29.0781 Q23.1094,29.2344 22.4063,29.2344 Q19.9063,29.2344 18.5781,27.5938 Q17.2656,25.9375 17.2656,22.8125 Q17.2656,19.6875 18.5781,18.0313 Q19.9063,16.375 22.4063,16.375 Q23.1094,16.375 23.75,16.5313 Q24.4063,16.6875 24.9688,16.9844 L24.9688,19.7031 Q24.3438,19.125 23.75,18.8594 Q23.1563,18.5781 22.5313,18.5781 Q21.1875,18.5781 20.5,19.6563 Q19.8125,20.7188 19.8125,22.8125 Q19.8125,24.9063 20.5,25.9844 Q21.1875,27.0469 22.5313,27.0469 Q23.1563,27.0469 23.75,26.7813 Q24.3438,26.5 24.9688,25.9219 L24.9688,28.6406 Z "/><text fill="#000000" font-family="sans-serif" font-size="12" lengthAdjust="spacingAndGlyphs" textLength="49" x="36" y="27.1543">Class01</text><line style="stroke: #A80036; stroke-width: 1.5;" x1="8" x2="87" y1="39" y2="39"/><line style="stroke: #A80036; stroke-width: 1.5;" x1="8" x2="87" y1="47" y2="47"/><!--MD5=[67b7f66b9c6b27d60ed6d0424460c06c]
class Class02--><rect fill="#FEFECE" filter="url(#f1s0d3ee1u0uek)" height="48" id="Class02" style="stroke: #A80036; stroke-width: 1.5;" width="81" x="7" y="115"/><ellipse cx="22" cy="131" fill="#ADD1B2" rx="11" ry="11" style="stroke: #A80036; stroke-width: 1.0;"/><path d="M24.9688,136.6406 Q24.3906,136.9375 23.75,137.0781 Q23.1094,137.2344 22.4063,137.2344 Q19.9063,137.2344 18.5781,135.5938 Q17.2656,133.9375 17.2656,130.8125 Q17.2656,127.6875 18.5781,126.0313 Q19.9063,124.375 22.4063,124.375 Q23.1094,124.375 23.75,124.5313 Q24.4063,124.6875 24.9688,124.9844 L24.9688,127.7031 Q24.3438,127.125 23.75,126.8594 Q23.1563,126.5781 22.5313,126.5781 Q21.1875,126.5781 20.5,127.6563 Q19.8125,128.7188 19.8125,130.8125 Q19.8125,132.9063 20.5,133.9844 Q21.1875,135.0469 22.5313,135.0469 Q23.1563,135.0469 23.75,134.7813 Q24.3438,134.5 24.9688,133.9219 L24.9688,136.6406 Z "/><text fill="#000000" font-family="sans-serif" font-size="12" lengthAdjust="spacingAndGlyphs" textLength="49" x="36" y="135.1543">Class02</text><line style="stroke: #A80036; stroke-width: 1.5;" x1="8" x2="87" y1="147" y2="147"/><line style="stroke: #A80036; stroke-width: 1.5;" x1="8" x2="87" y1="155" y2="155"/><!--MD5=[e34eefe962fcadefcbf83660cc436420]
class Class03--><rect fill="#FEFECE" filter="url(#f1s0d3ee1u0uek)" height="48" id="Class03" style="stroke: #A80036; stroke-width: 1.5;" width="81" x="123" y="7"/><ellipse cx="138" cy="23" fill="#ADD1B2" rx="11" ry="11" style="stroke: #A80036; stroke-width: 1.0;"/><path d="M140.9688,28.6406 Q140.3906,28.9375 139.75,29.0781 Q139.1094,29.2344 138.4063,29.2344 Q135.9063,29.2344 134.5781,27.5938 Q133.2656,25.9375 133.2656,22.8125 Q133.2656,19.6875 134.5781,18.0313 Q135.9063,16.375 138.4063,16.375 Q139.1094,16.375 139.75,16.5313 Q140.4063,16.6875 140.9688,16.9844 L140.9688,19.7031 Q140.3438,19.125 139.75,18.8594 Q139.1563,18.5781 138.5313,18.5781 Q137.1875,18.5781 136.5,19.6563 Q135.8125,20.7188 135.8125,22.8125 Q135.8125,24.9063 136.5,25.9844 Q137.1875,27.0469 138.5313,27.0469 Q139.1563,27.0469 139.75,26.7813 Q140.3438,26.5 140.9688,25.9219 L140.9688,28.6406 Z "/><text fill="#000000" font-family="sans-serif" font-size="12" lengthAdjust="spacingAndGlyphs" textLength="49" x="152" y="27.1543">Class03</text><line style="stroke: #A80036; stroke-width: 1.5;" x1="124" x2="203" y1="39" y2="39"/><line style="stroke: #A80036; stroke-width: 1.5;" x1="124" x2="203" y1="47" y2="47"/><!--MD5=[d53a23475d458e69a9e37a48405189e2]
class Class04--><rect fill="#FEFECE" filter="url(#f1s0d3ee1u0uek)" height="48" id="Class04" style="stroke: #A80036; stroke-width: 1.5;" width="81" x="123" y="115"/><ellipse cx="138" cy="131" fill="#ADD1B2" rx="11" ry="11" style="stroke: #A80036; stroke-width: 1.0;"/><path d="M140.9688,136.6406 Q140.3906,136.9375 139.75,137.0781 Q139.1094,137.2344 138.4063,137.2344 Q135.9063,137.2344 134.5781,135.5938 Q133.2656,133.9375 133.2656,130.8125 Q133.2656,127.6875 134.5781,126.0313 Q135.9063,124.375 138.4063,124.375 Q139.1094,124.375 139.75,124.5313 Q140.4063,124.6875 140.9688,124.9844 L140.9688,127.7031 Q140.3438,127.125 139.75,126.8594 Q139.1563,126.5781 138.5313,126.5781 Q137.1875,126.5781 136.5,127.6563 Q135.8125,128.7188 135.8125,130.8125 Q135.8125,132.9063 136.5,133.9844 Q137.1875,135.0469 138.5313,135.0469 Q139.1563,135.0469 139.75,134.7813 Q140.3438,134.5 140.9688,133.9219 L140.9688,136.6406 Z "/><text fill="#000000" font-family="sans-serif" font-size="12" lengthAdjust="spacingAndGlyphs" textLength="49" x="152" y="135.1543">Class04</text><line style="stroke: #A80036; stroke-width: 1.5;" x1="124" x2="203" y1="147" y2="147"/><line style="stroke: #A80036; stroke-width: 1.5;" x1="124" x2="203" y1="155" y2="155"/><!--MD5=[21c802bf509ebb275d96eccffaf3e0b6]
class Class05--><rect fill="#FEFECE" filter="url(#f1s0d3ee1u0uek)" height="48" id="Class05" style="stroke: #A80036; stroke-width: 1.5;" width="81" x="239" y="7"/><ellipse cx="254" cy="23" fill="#ADD1B2" rx="11" ry="11" style="stroke: #A80036; stroke-width: 1.0;"/><path d="M256.9688,28.6406 Q256.3906,28.9375 255.75,29.0781 Q255.1094,29.2344 254.4063,29.2344 Q251.9063,29.2344 250.5781,27.5938 Q249.2656,25.9375 249.2656,22.8125 Q249.2656,19.6875 250.5781,18.0313 Q251.9063,16.375 254.4063,16.375 Q255.1094,16.375 255.75,16.5313 Q256.4063,16.6875 256.9688,16.9844 L256.9688,19.7031 Q256.3438,19.125 255.75,18.8594 Q255.1563,18.5781 254.5313,18.5781 Q253.1875,18.5781 252.5,19.6563 Q251.8125,20.7188 251.8125,22.8125 Q251.8125,24.9063 252.5,25.9844 Q253.1875,27.0469 254.5313,27.0469 Q255.1563,27.0469 255.75,26.7813 Q256.3438,26.5 256.9688,25.9219 L256.9688,28.6406 Z "/><text fill="#000000" font-family="sans-serif" font-size="12" lengthAdjust="spacingAndGlyphs" textLength="49" x="268" y="27.1543">Class05</text><line style="stroke: #A80036; stroke-width: 1.5;" x1="240" x2="319" y1="39" y2="39"/><line style="stroke: #A80036; stroke-width: 1.5;" x1="240" x2="319" y1="47" y2="47"/><!--MD5=[247dd373b5711b206209116e093ec52c]
class Class06--><rect fill="#FEFECE" filter="url(#f1s0d3ee1u0uek)" height="48" id="Class06" style="stroke: #A80036; stroke-width: 1.5;" width="81" x="239" y="115"/><ellipse cx="254" cy="131" fill="#ADD1B2" rx="11" ry="11" style="stroke: #A80036; stroke-width: 1.0;"/><path d="M256.9688,136.6406 Q256.3906,136.9375 255.75,137.0781 Q255.1094,137.2344 254.4063,137.2344 Q251.9063,137.2344 250.5781,135.5938 Q249.2656,133.9375 249.2656,130.8125 Q249.2656,127.6875 250.5781,126.0313 Q251.9063,124.375 254.4063,124.375 Q255.1094,124.375 255.75,124.5313 Q256.4063,124.6875 256.9688,124.9844 L256.9688,127.7031 Q256.3438,127.125 255.75,126.8594 Q255.1563,126.5781 254.5313,126.5781 Q253.1875,126.5781 252.5,127.6563 Q251.8125,128.7188 251.8125,130.8125 Q251.8125,132.9063 252.5,133.9844 Q253.1875,135.0469 254.5313,135.0469 Q255.1563,135.0469 255.75,134.7813 Q256.3438,134.5 256.9688,133.9219 L256.9688,136.6406 Z "/><text fill="#000000" font-family="sans-serif" font-size="12" lengthAdjust="spacingAndGlyphs" textLength="49" x="268" y="135.1543">Class06</text><line style="stroke: #A80036; stroke-width: 1.5;" x1="240" x2="319" y1="147" y2="147"/><line style="stroke: #A80036; stroke-width: 1.5;" x1="240" x2="319" y1="155" y2="155"/><!--MD5=[83017deacfdfe1c29bd0eb2a2cc9c723]
class Class07--><rect fill="#FEFECE" filter="url(#f1s0d3ee1u0uek)" height="48" id="Class07" style="stroke: #A80036; stroke-width: 1.5;" width="81" x="355" y="7"/><ellipse cx="370" cy="23" fill="#ADD1B2" rx="11" ry="11" style="stroke: #A80036; stroke-width: 1.0;"/><path d="M372.9688,28.6406 Q372.3906,28.9375 371.75,29.0781 Q371.1094,29.2344 370.4063,29.2344 Q367.9063,29.2344 366.5781,27.5938 Q365.2656,25.9375 365.2656,22.8125 Q365.2656,19.6875 366.5781,18.0313 Q367.9063,16.375 370.4063,16.375 Q371.1094,16.375 371.75,16.5313 Q372.4063,16.6875 372.9688,16.9844 L372.9688,19.7031 Q372.3438,19.125 371.75,18.8594 Q371.1563,18.5781 370.5313,18.5781 Q369.1875,18.5781 368.5,19.6563 Q367.8125,20.7188 367.8125,22.8125 Q367.8125,24.9063 368.5,25.9844 Q369.1875,27.0469 370.5313,27.0469 Q371.1563,27.0469 371.75,26.7813 Q372.3438,26.5 372.9688,25.9219 L372.9688,28.6406 Z "/><text fill="#000000" font-family="sans-serif" font-size="12" lengthAdjust="spacingAndGlyphs" textLength="49" x="384" y="27.1543">Class07</text><line style="stroke: #A80036; stroke-width: 1.5;" x1="356" x2="435" y1="39" y2="39"/><line style="stroke: #A80036; stroke-width: 1.5;" x1="356" x2="435" y1="47" y2="47"/><!--MD5=[0e75c8574cc137f0f93c5ac687b4b98c]
class Class08--><rect fill="#FEFECE" filter="url(#f1s0d3ee1u0uek)" height="48" id="Class08" style="stroke: #A80036; stroke-width: 1.5;" width="81" x="355" y="115"/><ellipse cx="370" cy="131" fill="#ADD1B2" rx="11" ry="11" style="stroke: #A80036; stroke-width: 1.0;"/><path d="M372.9688,136.6406 Q372.3906,136.9375 371.75,137.0781 Q371.1094,137.2344 370.4063,137.2344 Q367.9063,137.2344 366.5781,135.5938 Q365.2656,133.9375 365.2656,130.8125 Q365.2656,127.6875 366.5781,126.0313 Q367.9063,124.375 370.4063,124.375 Q371.1094,124.375 371.75,124.5313 Q372.4063,124.6875 372.9688,124.9844 L372.9688,127.7031 Q372.3438,127.125 371.75,126.8594 Q371.1563,126.5781 370.5313,126.5781 Q369.1875,126.5781 368.5,127.6563 Q367.8125,128.7188 367.8125,130.8125 Q367.8125,132.9063 368.5,133.9844 Q369.1875,135.0469 370.5313,135.0469 Q371.1563,135.0469 371.75,134.7813 Q372.3438,134.5 372.9688,133.9219 L372.9688,136.6406 Z "/><text fill="#000000" font-family="sans-serif" font-size="12" lengthAdjust="spacingAndGlyphs" textLength="49" x="384" y="135.1543">Class08</text><line style="stroke: #A80036; stroke-width: 1.5;" x1="356" x2="435" y1="147" y2="147"/><line style="stroke: #A80036; stroke-width: 1.5;" x1="356" x2="435" y1="155" y2="155"/><!--MD5=[11c0341282256c64706f32de960d439a]
class Class09--><rect fill="#FEFECE" filter="url(#f1s0d3ee1u0uek)" height="48" id="Class09" style="stroke: #A80036; stroke-width: 1.5;" width="81" x="471" y="7"/><ellipse cx="486" cy="23" fill="#ADD1B2" rx="11" ry="11" style="stroke: #A80036; stroke-width: 1.0;"/><path d="M488.9688,28.6406 Q488.3906,28.9375 487.75,29.0781 Q487.1094,29.2344 486.4063,29.2344 Q483.9063,29.2344 482.5781,27.5938 Q481.2656,25.9375 481.2656,22.8125 Q481.2656,19.6875 482.5781,18.0313 Q483.9063,16.375 486.4063,16.375 Q487.1094,16.375 487.75,16.5313 Q488.4063,16.6875 488.9688,16.9844 L488.9688,19.7031 Q488.3438,19.125 487.75,18.8594 Q487.1563,18.5781 486.5313,18.5781 Q485.1875,18.5781 484.5,19.6563 Q483.8125,20.7188 483.8125,22.8125 Q483.8125,24.9063 484.5,25.9844 Q485.1875,27.0469 486.5313,27.0469 Q487.1563,27.0469 487.75,26.7813 Q488.3438,26.5 488.9688,25.9219 L488.9688,28.6406 Z "/><text fill="#000000" font-family="sans-serif" font-size="12" lengthAdjust="spacingAndGlyphs" textLength="49" x="500" y="27.1543">Class09</text><line style="stroke: #A80036; stroke-width: 1.5;" x1="472" x2="551" y1="39" y2="39"/><line style="stroke: #A80036; stroke-width: 1.5;" x1="472" x2="551" y1="47" y2="47"/><!--MD5=[f0780a43e5c0af3c52b439b7f3f3994e]
class Class10--><rect fill="#FEFECE" filter="url(#f1s0d3ee1u0uek)" height="48" id="Class10" style="stroke: #A80036; stroke-width: 1.5;" width="81" x="471" y="115"/><ellipse cx="486" cy="131" fill="#ADD1B2" rx="11" ry="11" style="stroke: #A80036; stroke-width: 1.0;"/><path d="M488.9688,136.6406 Q488.3906,136.9375 487.75,137.0781 Q487.1094,137.2344 486.4063,137.2344 Q483.9063,137.2344 482.5781,135.5938 Q481.2656,133.9375 481.2656,130.8125 Q481.2656,127.6875 482.5781,126.0313 Q483.9063,124.375 486.4063,124.375 Q487.1094,124.375 487.75,124.5313 Q488.4063,124.6875 488.9688,124.9844 L488.9688,127.7031 Q488.3438,127.125 487.75,126.8594 Q487.1563,126.5781 486.5313,126.5781 Q485.1875,126.5781 484.5,127.6563 Q483.8125,128.7188 483.8125,130.8125 Q483.8125,132.9063 484.5,133.9844 Q485.1875,135.0469 486.5313,135.0469 Q487.1563,135.0469 487.75,134.7813 Q488.3438,134.5 488.9688,133.9219 L488.9688,136.6406 Z "/><text fill="#000000" font-family="sans-serif" font-size="12" lengthAdjust="spacingAndGlyphs" textLength="49" x="500" y="135.1543">Class10</text><line style="stroke: #A80036; stroke-width: 1.5;" x1="472" x2="551" y1="147" y2="147"/><line style="stroke: #A80036; stroke-width: 1.5;" x1="472" x2="551" y1="155" y2="155"/><!--MD5=[3ab52052fd7925c5f64fca5d41d6866e]
reverse link Class01 to Class02--><path codeLine="1" d="M47.5,75.02 C47.5,88.58 47.5,103.04 47.5,114.68 " fill="none" id="Class01-backto-Class02" style="stroke: #A80036; stroke-width: 1.0;"/><polygon fill="none" points="40.5,75,47.5,55,54.5,75,40.5,75" style="stroke: #A80036; stroke-width: 1.0;"/><!--MD5=[0815ca07f8d628dc1a46a48ef0cd4c01]
reverse link Class03 to Class04--><path codeLine="2" d="M163.5,68.34 C163.5,83.68 163.5,101.1 163.5,114.68 " fill="none" id="Class03-backto-Class04" style="stroke: #A80036; stroke-width: 1.0;"/><polygon fill="#A80036" points="163.5,55,159.5,61,163.5,67,167.5,61,163.5,55" style="stroke: #A80036; stroke-width: 1.0;"/><!--MD5=[07ec844cc9d193d99f69abe09e63aa9e]
reverse link Class05 to Class06--><path codeLine="3" d="M279.5,68.34 C279.5,83.68 279.5,101.1 279.5,114.68 " fill="none" id="Class05-backto-Class06" style="stroke: #A80036; stroke-width: 1.0;"/><polygon fill="#FFFFFF" points="279.5,55,275.5,61,279.5,67,283.5,61,279.5,55" style="stroke: #A80036; stroke-width: 1.0;"/><!--MD5=[cd6c6022d9f7be31b268d5c573778c45]
link Class07 to Class08--><path codeLine="4" d="M395.5,55 C395.5,72.66 395.5,96.94 395.5,114.68 " fill="none" id="Class07-Class08" style="stroke: #A80036; stroke-width: 1.0; stroke-dasharray: 7.0,7.0;"/><!--MD5=[012abb55b9b004b4a603a60db8edb83a]
link Class09 to Class10--><path codeLine="5" d="M511.5,55 C511.5,72.66 511.5,96.94 511.5,114.68 " fill="none" id="Class09-Class10" style="stroke: #A80036; stroke-width: 1.0;"/><!--MD5=[b0b66039f292894ed5997d27870845b5]
@startuml
Class01 <|- - Class02
Class03 *- - Class04
Class05 o- - Class06
Class07 .. Class08
Class09 - - Class10
@enduml

PlantUML version 1.2020.19(Mon Oct 12 17:10:01 CEST 2020)
(GPL source distribution)
Java Runtime: OpenJDK Runtime Environment
JVM: OpenJDK 64-Bit Server VM
Default Encoding: UTF-8
Language: en
Country: US
--></g></svg>